{
    "asset" : {
        "generator" : "Khronos glTF Blender I/O v1.7.33",
        "version" : "2.0"
    },
    "extensionsUsed" : [
        "KHR_texture_transform",
        "KHR_lights_punctual"
    ],
    "extensionsRequired" : [
        "KHR_texture_transform",
        "KHR_lights_punctual"
    ],
    "extensions" : {
        "KHR_lights_punctual" : {
            "lights" : [
                {
                    "color" : [
                        1,
                        1,
                        1
                    ],
                    "intensity" : 150,
                    "spot" : {
                        "innerConeAngle" : 0.3337942263919169,
                        "outerConeAngle" : 0.39269909262657166
                    },
                    "type" : "spot",
                    "name" : "Spot"
                }
            ]
        }
    },
    "scene" : 0,
    "scenes" : [
        {
            "name" : "Scene",
            "nodes" : [
                0,
                1,
                2,
                4,
                5
            ]
        }
    ],
    "nodes" : [
        {
            "mesh" : 0,
            "name" : "Room",
            "scale" : [
                4,
                4,
                4
            ],
            "translation" : [
                0,
                0.4114103317260742,
                0
            ]
        },
        {
            "mesh" : 1,
            "name" : "Television",
            "rotation" : [
                0.7071068286895752,
                0,
                0,
                0.7071068286895752
            ],
            "scale" : [
                1.96746826171875,
                1.1244258880615234,
                1.1244258880615234
            ],
            "translation" : [
                -0.280152291059494,
                3.630833387374878,
                -3.8782520294189453
            ]
        },
        {
            "name" : "Area",
            "rotation" : [
                -0.3535534143447876,
                0.3535534143447876,
                0.14644663035869598,
                0.8535534739494324
            ],
            "translation" : [
                -6.549043655395508,
                9.261746406555176,
                -6.549043655395508
            ]
        },
        {
            "extensions" : {
                "KHR_lights_punctual" : {
                    "light" : 0
                }
            },
            "name" : "Spot_Orientation",
            "rotation" : [
                -0.7071067690849304,
                0,
                0,
                0.7071067690849304
            ]
        },
        {
            "children" : [
                3
            ],
            "name" : "Spot",
            "translation" : [
                -3.5114688873291016,
                6.874080657958984,
                -0.7489967346191406
            ]
        },
        {
            "mesh" : 2,
            "name" : "Wall Frame",
            "rotation" : [
                -0.5000011324882507,
                -0.5000048279762268,
                0.49999886751174927,
                -0.4999952018260956
            ],
            "scale" : [
                3.0627706050872803,
                3.5327799320220947,
                3.5327799320220947
            ],
            "translation" : [
                -3.9999871253967285,
                3.4675843715667725,
                -0.7631379961967468
            ]
        }
    ],
    "materials" : [
        {
            "doubleSided" : true,
            "name" : "Wall",
            "pbrMetallicRoughness" : {
                "baseColorFactor" : [
                    0.8000000715255737,
                    0.7461315989494324,
                    0.6540709733963013,
                    1
                ],
                "metallicFactor" : 0,
                "roughnessFactor" : 0.5
            }
        },
        {
            "doubleSided" : true,
            "name" : "Floor",
            "pbrMetallicRoughness" : {
                "baseColorTexture" : {
                    "extensions" : {
                        "KHR_texture_transform" : {
                            "offset" : [
                                1.25,
                                -1.699999988079071
                            ],
                            "scale" : [
                                1,
                                2.5
                            ]
                        }
                    },
                    "index" : 0
                },
                "metallicFactor" : 0
            }
        },
        {
            "doubleSided" : true,
            "name" : "TV",
            "pbrMetallicRoughness" : {
                "baseColorFactor" : [
                    0,
                    0,
                    0,
                    1
                ],
                "metallicFactor" : 0,
                "roughnessFactor" : 0.20000000298023224
            }
        },
        {
            "doubleSided" : true,
            "emissiveFactor" : [
                1,
                1,
                1
            ],
            "emissiveTexture" : {
                "index" : 1
            },
            "name" : "TVDisplay",
            "pbrMetallicRoughness" : {}
        },
        {
            "doubleSided" : true,
            "emissiveFactor" : [
                1,
                0.3715894743800163,
                0
            ],
            "name" : "TVBacklight",
            "pbrMetallicRoughness" : {}
        },
        {
            "alphaMode" : "BLEND",
            "doubleSided" : true,
            "name" : "Wall Frame",
            "pbrMetallicRoughness" : {
                "baseColorTexture" : {
                    "index" : 2
                },
                "metallicFactor" : 0,
                "roughnessFactor" : 0.5
            }
        }
    ],
    "meshes" : [
        {
            "name" : "Plane",
            "primitives" : [
                {
                    "attributes" : {
                        "POSITION" : 0,
                        "NORMAL" : 1,
                        "TEXCOORD_0" : 2
                    },
                    "indices" : 3,
                    "material" : 0
                },
                {
                    "attributes" : {
                        "POSITION" : 4,
                        "NORMAL" : 5,
                        "TEXCOORD_0" : 6
                    },
                    "indices" : 7,
                    "material" : 1
                }
            ]
        },
        {
            "name" : "Plane.006",
            "primitives" : [
                {
                    "attributes" : {
                        "POSITION" : 8,
                        "NORMAL" : 9,
                        "TEXCOORD_0" : 10
                    },
                    "indices" : 11,
                    "material" : 2
                },
                {
                    "attributes" : {
                        "POSITION" : 12,
                        "NORMAL" : 13,
                        "TEXCOORD_0" : 14
                    },
                    "indices" : 15,
                    "material" : 3
                },
                {
                    "attributes" : {
                        "POSITION" : 16,
                        "NORMAL" : 17,
                        "TEXCOORD_0" : 18
                    },
                    "indices" : 7,
                    "material" : 4
                }
            ]
        },
        {
            "name" : "pexels-steve-johnson-1572386",
            "primitives" : [
                {
                    "attributes" : {
                        "POSITION" : 19,
                        "NORMAL" : 20,
                        "TEXCOORD_0" : 21
                    },
                    "indices" : 22,
                    "material" : 5
                }
            ]
        }
    ],
    "textures" : [
        {
            "sampler" : 0,
            "source" : 0
        },
        {
            "sampler" : 0,
            "source" : 1
        },
        {
            "sampler" : 0,
            "source" : 2
        }
    ],
    "images" : [
        {
            "mimeType" : "image/jpeg",
            "name" : "Wood051_2K_Color",
            "uri" : "Wood051_2K_Color.jpg"
        },
        {
            "mimeType" : "image/jpeg",
            "name" : "cyberpunk77",
            "uri" : "cyberpunk77.jpg"
        },
        {
            "mimeType" : "image/jpeg",
            "name" : "among us",
            "uri" : "among%20us.jpg"
        }
    ],
    "accessors" : [
        {
            "bufferView" : 0,
            "componentType" : 5126,
            "count" : 40,
            "max" : [
                1,
                1.375,
                1
            ],
            "min" : [
                -1.100000023841858,
                -0.10000000149011612,
                -1.100000023841858
            ],
            "type" : "VEC3"
        },
        {
            "bufferView" : 1,
            "componentType" : 5126,
            "count" : 40,
            "type" : "VEC3"
        },
        {
            "bufferView" : 2,
            "componentType" : 5126,
            "count" : 40,
            "type" : "VEC2"
        },
        {
            "bufferView" : 3,
            "componentType" : 5123,
            "count" : 66,
            "type" : "SCALAR"
        },
        {
            "bufferView" : 4,
            "componentType" : 5126,
            "count" : 4,
            "max" : [
                1,
                0,
                1
            ],
            "min" : [
                -1,
                0,
                -1
            ],
            "type" : "VEC3"
        },
        {
            "bufferView" : 5,
            "componentType" : 5126,
            "count" : 4,
            "type" : "VEC3"
        },
        {
            "bufferView" : 6,
            "componentType" : 5126,
            "count" : 4,
            "type" : "VEC2"
        },
        {
            "bufferView" : 7,
            "componentType" : 5123,
            "count" : 6,
            "type" : "SCALAR"
        },
        {
            "bufferView" : 8,
            "componentType" : 5126,
            "count" : 57,
            "max" : [
                1.4045870304107666,
                0.1787349283695221,
                1.2533453702926636
            ],
            "min" : [
                -1.1021037101745605,
                0,
                -1.2533453702926636
            ],
            "type" : "VEC3"
        },
        {
            "bufferView" : 9,
            "componentType" : 5126,
            "count" : 57,
            "type" : "VEC3"
        },
        {
            "bufferView" : 10,
            "componentType" : 5126,
            "count" : 57,
            "type" : "VEC2"
        },
        {
            "bufferView" : 11,
            "componentType" : 5123,
            "count" : 264,
            "type" : "SCALAR"
        },
        {
            "bufferView" : 12,
            "componentType" : 5126,
            "count" : 4,
            "max" : [
                1.3472697734832764,
                0.16378343105316162,
                1.0887764692306519
            ],
            "min" : [
                -1.0392080545425415,
                0.16378343105316162,
                -1.1560654640197754
            ],
            "type" : "VEC3"
        },
        {
            "bufferView" : 13,
            "componentType" : 5126,
            "count" : 4,
            "type" : "VEC3"
        },
        {
            "bufferView" : 14,
            "componentType" : 5126,
            "count" : 4,
            "type" : "VEC2"
        },
        {
            "bufferView" : 15,
            "componentType" : 5123,
            "count" : 6,
            "type" : "SCALAR"
        },
        {
            "bufferView" : 16,
            "componentType" : 5126,
            "count" : 4,
            "max" : [
                1,
                0,
                1
            ],
            "min" : [
                -1,
                0,
                -1
            ],
            "type" : "VEC3"
        },
        {
            "bufferView" : 17,
            "componentType" : 5126,
            "count" : 4,
            "type" : "VEC3"
        },
        {
            "bufferView" : 18,
            "componentType" : 5126,
            "count" : 4,
            "type" : "VEC2"
        },
        {
            "bufferView" : 19,
            "componentType" : 5126,
            "count" : 24,
            "max" : [
                0.3761746883392334,
                0.023349551483988762,
                0.5
            ],
            "min" : [
                -0.3761746883392334,
                0,
                -0.5
            ],
            "type" : "VEC3"
        },
        {
            "bufferView" : 20,
            "componentType" : 5126,
            "count" : 24,
            "type" : "VEC3"
        },
        {
            "bufferView" : 21,
            "componentType" : 5126,
            "count" : 24,
            "type" : "VEC2"
        },
        {
            "bufferView" : 22,
            "componentType" : 5123,
            "count" : 36,
            "type" : "SCALAR"
        }
    ],
    "bufferViews" : [
        {
            "buffer" : 0,
            "byteLength" : 480,
            "byteOffset" : 0
        },
        {
            "buffer" : 0,
            "byteLength" : 480,
            "byteOffset" : 480
        },
        {
            "buffer" : 0,
            "byteLength" : 320,
            "byteOffset" : 960
        },
        {
            "buffer" : 0,
            "byteLength" : 132,
            "byteOffset" : 1280
        },
        {
            "buffer" : 0,
            "byteLength" : 48,
            "byteOffset" : 1412
        },
        {
            "buffer" : 0,
            "byteLength" : 48,
            "byteOffset" : 1460
        },
        {
            "buffer" : 0,
            "byteLength" : 32,
            "byteOffset" : 1508
        },
        {
            "buffer" : 0,
            "byteLength" : 12,
            "byteOffset" : 1540
        },
        {
            "buffer" : 0,
            "byteLength" : 684,
            "byteOffset" : 1552
        },
        {
            "buffer" : 0,
            "byteLength" : 684,
            "byteOffset" : 2236
        },
        {
            "buffer" : 0,
            "byteLength" : 456,
            "byteOffset" : 2920
        },
        {
            "buffer" : 0,
            "byteLength" : 528,
            "byteOffset" : 3376
        },
        {
            "buffer" : 0,
            "byteLength" : 48,
            "byteOffset" : 3904
        },
        {
            "buffer" : 0,
            "byteLength" : 48,
            "byteOffset" : 3952
        },
        {
            "buffer" : 0,
            "byteLength" : 32,
            "byteOffset" : 4000
        },
        {
            "buffer" : 0,
            "byteLength" : 12,
            "byteOffset" : 4032
        },
        {
            "buffer" : 0,
            "byteLength" : 48,
            "byteOffset" : 4044
        },
        {
            "buffer" : 0,
            "byteLength" : 48,
            "byteOffset" : 4092
        },
        {
            "buffer" : 0,
            "byteLength" : 32,
            "byteOffset" : 4140
        },
        {
            "buffer" : 0,
            "byteLength" : 288,
            "byteOffset" : 4172
        },
        {
            "buffer" : 0,
            "byteLength" : 288,
            "byteOffset" : 4460
        },
        {
            "buffer" : 0,
            "byteLength" : 192,
            "byteOffset" : 4748
        },
        {
            "buffer" : 0,
            "byteLength" : 72,
            "byteOffset" : 4940
        }
    ],
    "samplers" : [
        {
            "magFilter" : 9729,
            "minFilter" : 9987
        }
    ],
    "buffers" : [
        {
            "byteLength" : 5012,
            "uri" : "newroom.bin"
        }
    ]
}
